<svg xmlns="http://www.w3.org/2000/svg" viewBox="0 0 100 100"><circle cx="50" cy="50" r="50" fill="#DDEAF8"/><path d="M50 70c-1.9 0-3.4-.5-3.4-.5l-.1 5.2h7l-.1-5.2s-1.5.5-3.4.5z" fill="#00000018"/><path d="M50 68.5c2.6 0 4.6-.7 4.6-.7v6.4h-9.2v-6.4s2 .7 4.6.7z" fill="#EFC7A6"/><path d="M17 100c0-13.6 12-21.2 26.4-24.4L50 82l6.6-6.4C71 78.8 83 86.4 83 100z" fill="#3D5A8C"/><path d="M43.4 75.6 50 82l6.6-6.4-3.1-1.5H46.5z" fill="#2E4770"/><path d="M50 21c12.4 0 18.6 8.4 18.6 21.6 0 13.6-8.4 25.4-18.6 25.4S31.4 56.2 31.4 42.6C31.4 29.4 37.6 21 50 21z" fill="#EFC7A6"/>
<path d="M50 21c12.4 0 18.6 8.4 18.6 21.6 0 4-.7 8-2 11.6-2.4-14-8.2-22-16.6-22s-14.2 8-16.6 22c-1.3-3.6-2-7.6-2-11.6C31.4 29.4 37.6 21 50 21z" fill="#B57C55" opacity=".25"/>
<ellipse cx="31.6" cy="45.5" rx="3.4" ry="4.4" fill="#EFC7A6"/><ellipse cx="68.4" cy="45.5" rx="3.4" ry="4.4" fill="#EFC7A6"/><path d="M30.8 43.6c-.6-14.6 6.6-23.2 19.2-23.2 12.2 0 19.6 8.2 19.2 22.4-1-8-3.2-11.4-6.2-12.8-6.6 3.2-17.8 4.4-24.4 2-4 1.8-6.6 5.6-7.8 11.6z" fill="#4A3324"/><path d="M36.3 38.6c1.9-1.9500000000000002 6.6-1.9500000000000002 8.6-.6" stroke="#3A2718" stroke-width="2.6" fill="none" stroke-linecap="round"/><path d="M55.1 38c2-1.6575000000000002 6.7-1.6575000000000002 8.6.6" stroke="#3A2718" stroke-width="2.6" fill="none" stroke-linecap="round"/><ellipse cx="41" cy="45" rx="4.3" ry="3.1" fill="#fff"/><circle cx="41" cy="45.2" r="2.5" fill="#4B6E45"/><circle cx="41" cy="45.2" r="1.2" fill="#1a1410"/><circle cx="40" cy="44" r=".85" fill="#fff" opacity=".9"/><ellipse cx="59" cy="45" rx="4.3" ry="3.1" fill="#fff"/><circle cx="59" cy="45.2" r="2.5" fill="#4B6E45"/><circle cx="59" cy="45.2" r="1.2" fill="#1a1410"/><circle cx="58" cy="44" r=".85" fill="#fff" opacity=".9"/><path d="M50 46.5v6.2c0 .9-.8 1.5-1.9 1.5" stroke="#B57C55" stroke-width="1.5" fill="none" stroke-linecap="round" stroke-linejoin="round" opacity=".65"/><path d="M44.4 58.4c1.8 3.4 9.4 3.4 11.2 0" stroke="#8d4a3f" stroke-width="1.7" fill="none" stroke-linecap="round"/></svg>