<svg xmlns="http://www.w3.org/2000/svg" viewBox="0 0 200 200"><defs>
<radialGradient id="s6" cx="50%" cy="30%" r="75%">
<stop offset="0" stop-color="#E3B085"/><stop offset=".55" stop-color="#C98A5F"/><stop offset="1" stop-color="#8A5433"/></radialGradient>
<linearGradient id="n6" x1="0" y1="0" x2="0" y2="1"><stop offset="0" stop-color="#8A5433"/><stop offset=".6" stop-color="#C98A5F"/></linearGradient>
<linearGradient id="h6" x1=".15" y1="0" x2=".85" y2="1">
<stop offset="0" stop-color="#4A3524"/><stop offset=".45" stop-color="#2A1D14"/><stop offset="1" stop-color="#180F0A"/></linearGradient>
<linearGradient id="c6" x1="0" y1="0" x2="0" y2="1"><stop offset="0" stop-color="#5C6B7A"/><stop offset="1" stop-color="#3E4B57"/></linearGradient>
<radialGradient id="r6" cx="50%" cy="50%" r="50%"><stop offset="0" stop-color="#8B4438" stop-opacity=".3"/><stop offset="1" stop-color="#8B4438" stop-opacity="0"/></radialGradient>
<clipPath id="H6"><ellipse cx="100" cy="94" rx="44" ry="51"/></clipPath>
<clipPath id="L6"><path d="M66 96c5-8.5 23-8.5 28 0-5 8.5-23 8.5-28 0z"/></clipPath>
<clipPath id="R6"><path d="M106 96c5-8.5 23-8.5 28 0-5 8.5-23 8.5-28 0z"/></clipPath>
</defs><circle cx="100" cy="100" r="100" fill="#FBE9D6"/><path d="M78 128h44v26c0 8 8 12 8 12H70s8-4 8-12z" fill="url(#n6)"/>
<path d="M78 128h44v10c-7 8-37 8-44 0z" fill="#8A5433" opacity=".5"/>
<path d="M100 166c-17 0-28-7-28-7C44 168 22 180 22 200h156c0-20-22-32-50-41 0 0-11 7-28 7z" fill="url(#c6)"/>
<path d="M72 159s11 9 28 9 28-9 28-9l11 4c-10 11-24 16-39 16s-29-5-39-16z" fill="#fff" opacity=".13"/><ellipse cx="100" cy="94" rx="44" ry="51" fill="url(#s6)"/>
<g clip-path="url(#H6)"><ellipse cx="100" cy="58" rx="40" ry="26" fill="#E3B085" opacity=".32"/><path d="M60 104c0 16 4 28 11 35 8 8 19 12 29 12s21-4 29-12c7-7 11-19 11-35 c0 26-18 43-40 43s-40-17-40-43z" fill="#8A5433" opacity=".28"/></g>
<ellipse cx="56" cy="97" rx="7.5" ry="11" fill="#C98A5F"/><ellipse cx="144" cy="97" rx="7.5" ry="11" fill="#C98A5F"/>
<path d="M54 95c3-2 6 0 6 4M146 95c-3-2-6 0-6 4" stroke="#8A5433" stroke-width="1.6" fill="none" opacity=".55" stroke-linecap="round"/>
<g clip-path="url(#H6)"><path d="M56 88c2 14 6 25 12 33-9-6-14-18-15-33z" fill="#8A5433" opacity=".3"/><path d="M144 88c-2 14-6 25-12 33 9-6 14-18 15-33z" fill="#8A5433" opacity=".3"/><path d="M68 104c4 7 9 12 14 15-7 0-13-6-16-13z" fill="#8A5433" opacity=".22"/><path d="M132 104c-4 7-9 12-14 15 7 0 13-6 16-13z" fill="#8A5433" opacity=".22"/></g><ellipse cx="71" cy="110" rx="13" ry="8" fill="url(#r6)"/><ellipse cx="129" cy="110" rx="13" ry="8" fill="url(#r6)"/><path d="M57 92c0 10 1 20 3 28 3 12 8 21 15 26 7 6 16 9 25 9s18-3 25-9c7-5 12-14 15-26 2-8 3-18 3-28-2 20-7 33-14 40-8 8-19 12-29 12s-21-4-29-12c-7-7-12-20-14-40z" fill="#2A1D14"/><path d="M62 108c3 16 8 27 15 33 7 6 15 9 23 9s16-3 23-9c7-6 12-17 15-33-1 22-6 36-14 43-7 6-16 9-24 9s-17-3-24-9c-8-7-13-21-14-43z" fill="#1A110C" opacity=".55"/><path d="M100 28c28 0 47 19 47 45 0 6-1 12-3 16-3-18-9-28-18-31-15 8-36 10-52 6-8-2-14 3-16 12-1 4-1 8-2 13-2-5-3-11-3-16 0-26 19-45 47-45z" fill="url(#h6)"/><path d="M63 83c8-7 23-7 31 1" stroke="#180F0A" stroke-width="4.6" fill="none" stroke-linecap="round" opacity=".93"/><path d="M137 83c-8-7-23-7-31 1" stroke="#180F0A" stroke-width="4.6" fill="none" stroke-linecap="round" opacity=".93"/><path d="M66 96c5-8.5 23-8.5 28 0-5 8.5-23 8.5-28 0z" fill="#F8F4F1"/>
<g clip-path="url(#L6)"><circle cx="80" cy="95.5" r="8.6" fill="#3A2617"/>
<circle cx="80" cy="95.5" r="8.6" fill="none" stroke="#0006" stroke-width="1.7"/>
<circle cx="80" cy="95.5" r="3.7" fill="#100C09"/>
<circle cx="77.1" cy="92.4" r="2.2" fill="#fff" opacity=".9"/>
<circle cx="83.1" cy="99" r="1.1" fill="#fff" opacity=".4"/>
<path d="M65 96c5-9 24-9 29-1v-5c-6-6-23-6-29 0z" fill="#000" opacity=".2"/></g>
<path d="M66 96c5-8.5 23-8.5 28 0" stroke="#2B201A" stroke-width="2.4" fill="none" stroke-linecap="round"/>
<path d="M67 97.4c5 7 21 7 26 0" stroke="#8A5433" stroke-width="1.3" fill="none" opacity=".7" stroke-linecap="round"/><path d="M106 96c5-8.5 23-8.5 28 0-5 8.5-23 8.5-28 0z" fill="#F8F4F1"/>
<g clip-path="url(#R6)"><circle cx="120" cy="95.5" r="8.6" fill="#3A2617"/>
<circle cx="120" cy="95.5" r="8.6" fill="none" stroke="#0006" stroke-width="1.7"/>
<circle cx="120" cy="95.5" r="3.7" fill="#100C09"/>
<circle cx="117.1" cy="92.4" r="2.2" fill="#fff" opacity=".9"/>
<circle cx="123.1" cy="99" r="1.1" fill="#fff" opacity=".4"/>
<path d="M105 96c5-9 24-9 29-1v-5c-6-6-23-6-29 0z" fill="#000" opacity=".2"/></g>
<path d="M106 96c5-8.5 23-8.5 28 0" stroke="#2B201A" stroke-width="2.4" fill="none" stroke-linecap="round"/>
<path d="M107 97.4c5 7 21 7 26 0" stroke="#8A5433" stroke-width="1.3" fill="none" opacity=".7" stroke-linecap="round"/><path d="M100 96c-1 8-4 14-7 17 2 3 5 4.4 7 4.4s5-1.4 7-4.4c-3-3-6-9-7-17z" fill="#E3B085" opacity=".4"/><path d="M93 113c2 3 5 4.4 7 4.4s5-1.4 7-4.4" stroke="#8A5433" stroke-width="2" fill="none" stroke-linecap="round"/><path d="M89.6 114.6c1.6 2.6 3.4 3.4 3.4 3.4M110.4 114.6c-1.6 2.6-3.4 3.4-3.4 3.4" stroke="#8A5433" stroke-width="1.5" fill="none" opacity=".65" stroke-linecap="round"/><path d="M97 120c1 3 5 3 6 0" stroke="#8A5433" stroke-width="1.1" fill="none" opacity=".4"/><path d="M86 129c4.5-2.4 8.5-3.2 14-3.2s9.5.8 14 3.2c-4 1.2-9 1.8-14 1.8s-10-.6-14-1.8z" fill="#8B4438" opacity=".8"/><path d="M86 129c4 5.4 8.5 7.6 14 7.6s10-2.2 14-7.6c-4 1.6-9 2.4-14 2.4s-10-.8-14-2.4z" fill="#63302A" opacity=".85"/><path d="M86 129h28" stroke="#63302A" stroke-width="1.3" opacity=".85"/><path d="M86 122c4-2.4 24-2.4 28 0-2 5-8 7.4-14 7.4s-12-2.4-14-7.4z" fill="#2A1D14"/><path d="M85 137c5 6 25 6 30 0-2 12-7 18-15 18s-13-6-15-18z" fill="#2A1D14"/></svg>